<svg xmlns="http://www.w3.org/2000/svg" version="1.1" xmlns:xlink="http://www.w3.org/1999/xlink" xmlns:svgjs="http://svgjs.dev/svgjs" width="1000" height="1000" viewBox="0 0 1000 1000"><rect width="1000" height="1000" fill="#ffffff"></rect><g transform="matrix(0.7,0,0,0.7,150.0000000000001,106.25)"><svg viewBox="0 0 320 360" data-background-color="#ffffff" preserveAspectRatio="xMidYMid meet" height="1125" width="1000" xmlns="http://www.w3.org/2000/svg" xmlns:xlink="http://www.w3.org/1999/xlink"><g id="tight-bounds" transform="matrix(1,0,0,1,0,0)"><svg viewBox="0 0 320 360" height="360" width="320"><g><svg></svg></g><g><svg viewBox="0 0 320 360" height="360" width="320"><g><path xmlns="http://www.w3.org/2000/svg" d="M20.961 227.22l3.726 4.658-1.863-6.056c-0.466-2.795-3.726 0.466-1.863 1.398M25.153 224.425c1.397 2.329 2.795 4.658 2.795 6.987 0 3.261 2.795 4.658 5.123 5.589-3.261-3.726-5.124-13.974-7.918-12.576M204.017 26.929c7.918 0 15.371-0.932 23.756 0.931 20.495 5.124 37.729 15.371 49.374 29.811l32.606 52.169c1.397 13.042 4.192 27.482 3.726 43.319 3.261 0 2.795-4.658 6.521-5.59-3.726 9.316-5.59 20.961-6.521 34.469-2.329-7.453 0-18.632 0.466-24.687-3.261 5.124-5.124 1.397-5.124-0.932 0.466-3.726-1.397-3.261-2.795-4.658-5.124-4.658-8.384-9.782-12.11-17.7 2.329-6.055 2.795-14.905-4.658-19.563-2.329-1.397-5.124-3.726-6.521-7.453-1.863-5.124-5.124-11.179-4.193-19.097 0.466-2.329-6.987 5.124-11.179 1.863-18.166-12.576-36.332-27.016-58.224-39.127-11.645 0-20.029-4.192-24.221-9.316-3.726-4.658-0.932-10.713 4.658-11.179 3.261 0 6.987-0.932 9.782 0.932 0.466-1.863 2.329-4.192 4.657-4.192M157.904 16.215l0.932 0.466c4.658 0.932 6.987 7.453 12.11 5.124 0 3.261 0.466 6.521-0.466 8.85-1.397 3.726-5.59 3.726-8.85 3.726-31.208-1.863-49.374 11.179-68.471 22.358-5.124 3.261-10.713 5.59-14.906 9.782-20.029 18.632-41.921 35.866-47.045 70.335l-4.192 38.195c-0.466 4.192-5.124 8.384-4.192 13.508l3.26 22.824c-3.261-3.261-5.124 0.932-4.192 2.795 0.466 1.397 2.329 6.055 5.124 1.863 3.726 6.987 7.453 20.495 12.576 26.55 15.837 18.632 36.332 35.4 53.101 52.169 4.192-0.932 7.453-0.932 8.384-3.727 1.397 2.795-1.397 5.59-3.726 6.056 7.453 4.658 15.837 8.85 27.016 9.781 14.44 0.932 27.948 3.261 40.524 6.522 6.521-1.863 13.042-2.795 20.029-3.261 2.329 0 3.726-3.726 6.521-4.658l0.466-4.658c2.795 4.192 2.329-1.397 0.466-4.192 3.261 2.795 4.192 5.124 5.589 6.987 0-1.397 3.726-6.521 3.727-0.466l0.931-6.055c1.397-0.932 1.863 5.124 3.261 0.931 1.397-4.192 4.192-0.932 6.987-2.329-0.932 1.863-0.466 5.59 2.794 3.261l3.727-3.261c2.329 5.59 6.055 3.261 7.918 2.329 20.495-13.042 40.99-28.413 60.553-43.784l-0.466 6.055 2.329-7.453c2.329 2.329 4.192 0.466 5.124-0.931 2.795-4.658 6.521-9.316 12.577-13.508-7.453 20.029-16.303 35.866-27.482 48.908l-4.658 5.59c0 3.261-0.932 7.453-4.658 7.918-1.863 0.466-5.59-0.932-8.384 1.863-1.397 1.863 3.261 5.59-0.466 2.795-3.261-2.329-6.521 0-10.248 0.932-2.795 0.932 1.863 3.726 2.795 5.589 0.932 1.863 1.863 3.726 1.398 6.056l-5.124-5.59c-6.055 3.261-9.782 9.316-14.906 13.974-2.329 1.863-1.397 5.124-1.397 7.918-3.261 0-6.987-0.932-8.85 0.932-1.397 1.863-0.932 4.658-0.932 7.453-4.658-0.466-5.124-7.453-9.315-6.056-4.192 0.932-8.85 1.397-12.577 3.727 2.795 5.59-4.658 2.329-3.726 3.26-6.987-4.192-13.042-7.453-20.495-4.658-15.837-5.124-35.4-2.795-49.84-0.931 0-2.329 0.466-4.658-0.466-5.124-0.932 2.329-3.726 1.397-3.26 1.397-8.85-6.055-17.7-9.782-27.016-14.905-8.384 0.932-16.303-3.261-18.632-5.59-6.521-6.055-13.974-2.795-20.029-4.192-13.042-3.261-17.7-16.769-19.098-26.084-0.932-4.658-4.658-6.521-6.055-6.056-6.055-19.563-15.371-37.263-22.824-55.429-1.863-4.658-1.397-9.316-1.397-14.44 2.329 0.932 4.658 0.466 4.192-2.794-2.329-15.371-7.918-27.016-13.974-38.195 3.261-15.837 3.726-34.469 11.179-48.443 6.521-12.576 18.632-19.098 27.016-29.811 2.795-3.726 2.795-8.85 5.59-12.11 9.316-9.316 18.632-19.098 28.879-27.482 4.658-3.726 10.247 0 17.234-1.397 2.329-8.384 11.645-15.837 20.495-13.508 3.726 0.932 11.179-8.85 13.508-9.782 3.726-1.397 1.863 3.726 1.863 6.987 8.85-6.987 20.961-10.713 32.14-14.906" fill="#2ecc40" fill-rule="nonzero" stroke="none" stroke-width="1" stroke-linecap="butt" stroke-linejoin="miter" stroke-miterlimit="10" stroke-dasharray="" stroke-dashoffset="0" font-family="none" font-weight="none" font-size="none" text-anchor="none" style="mix-blend-mode: normal" data-fill-palette-color="tertiary"></path></g><g transform="matrix(1,0,0,1,64,144.54711675777568)"><svg viewBox="0 0 192 70.90576648444863" height="70.90576648444863" width="192"><g><svg viewBox="0 0 192 70.90576648444863" height="70.90576648444863" width="192"><g><svg viewBox="0 0 192 70.90576648444863" height="70.90576648444863" width="192"><g transform="matrix(1,0,0,1,0,42.85675611687088)"><svg viewBox="0 0 192 28.049010367577758" height="28.049010367577758" width="192"><g><svg viewBox="0 0 192 28.049010367577758" height="28.049010367577758" width="192"><g><svg viewBox="0 0 192 28.049010367577758" height="28.049010367577758" width="192"><g transform="matrix(1,0,0,1,0,0)"><svg width="192" viewBox="2.75 -37.900001525878906 265.2200012207031 38.75" height="28.049010367577758" data-palette-color="#2ecc40"><path d="M19.6-18.35Q22.9-17.65 24.93-15.75 26.95-13.85 26.95-10.1L26.95-10.1Q26.95 0 13 0L13 0 2.75 0 2.75-34.65 11.8-34.65Q18.45-34.65 22.05-32.48 25.65-30.3 25.65-25.8L25.65-25.8Q25.65-22.8 23.95-20.93 22.25-19.05 19.6-18.35L19.6-18.35ZM12.55-29L10.75-29 10.75-20.75 12.95-20.75Q17.55-20.75 17.55-25L17.55-25Q17.55-27.05 16.35-28.03 15.15-29 12.55-29L12.55-29ZM13.05-5.8Q15.85-5.8 17.3-6.85 18.75-7.9 18.75-10.5L18.75-10.5Q18.75-15.4 13.45-15.4L13.45-15.4 10.75-15.4 10.75-5.8 13.05-5.8ZM44.15-27.3Q45.45-27.3 46.45-26.9L46.45-26.9 45.2-19.5Q44.15-19.8 43.1-19.8L43.1-19.8Q41.05-19.8 39.95-18.23 38.85-16.65 38.25-13.55L38.25-13.55 38.25 0 30.55 0 30.55-26.55 37.3-26.55 37.9-21.9Q38.8-24.5 40.4-25.9 42-27.3 44.15-27.3L44.15-27.3ZM70.4-13.8Q70.4-12.2 70.25-11L70.25-11 55.45-11Q55.75-7.5 57-6.15 58.25-4.8 60.55-4.8L60.55-4.8Q62.05-4.8 63.4-5.35 64.75-5.9 66.34-7.05L66.34-7.05 69.5-2.8Q65.4 0.85 59.95 0.85L59.95 0.85Q53.95 0.85 50.82-2.88 47.7-6.6 47.7-13.15L47.7-13.15Q47.7-19.55 50.7-23.48 53.7-27.4 59.15-27.4L59.15-27.4Q64.4-27.4 67.4-23.88 70.4-20.35 70.4-13.8L70.4-13.8ZM62.85-15.65L62.85-16Q62.85-19.15 62.02-20.73 61.2-22.3 59.25-22.3L59.25-22.3Q57.5-22.3 56.55-20.83 55.6-19.35 55.4-15.65L55.4-15.65 62.85-15.65ZM93.74-7.35Q93.74-6 94.09-5.35 94.44-4.7 95.29-4.35L95.29-4.35 93.69 0.7Q91.39 0.5 89.94-0.35 88.49-1.2 87.69-3L87.69-3Q85.24 0.85 80.54 0.85L80.54 0.85Q76.94 0.85 74.82-1.43 72.69-3.7 72.69-7.45L72.69-7.45Q72.69-11.8 75.62-14.1 78.54-16.4 84.09-16.4L84.09-16.4 86.19-16.4 86.19-17.65Q86.19-20 85.34-20.93 84.49-21.85 82.34-21.85L82.34-21.85Q79.89-21.85 76.09-20.5L76.09-20.5 74.34-25.45Q76.54-26.4 79.04-26.9 81.54-27.4 83.69-27.4L83.69-27.4Q88.84-27.4 91.29-25.1 93.74-22.8 93.74-18.1L93.74-18.1 93.74-7.35ZM82.84-4.65Q83.89-4.65 84.77-5.3 85.64-5.95 86.19-7.15L86.19-7.15 86.19-12.1 84.79-12.1Q82.44-12.1 81.34-11.13 80.24-10.15 80.24-8.1L80.24-8.1Q80.24-6.4 80.92-5.53 81.59-4.65 82.84-4.65L82.84-4.65ZM113.34-37.9L121.04-37.1 121.04 0 114.24 0 113.89-2.95Q111.34 0.85 107.14 0.85L107.14 0.85Q102.69 0.85 100.34-2.88 97.99-6.6 97.99-13.3L97.99-13.3Q97.99-17.5 99.22-20.7 100.44-23.9 102.66-25.65 104.89-27.4 107.79-27.4L107.79-27.4Q111.14-27.4 113.34-24.95L113.34-24.95 113.34-37.9ZM109.59-4.8Q110.74-4.8 111.64-5.48 112.54-6.15 113.34-7.55L113.34-7.55 113.34-19.6Q112.54-20.7 111.77-21.23 110.99-21.75 109.94-21.75L109.94-21.75Q105.94-21.75 105.94-13.3L105.94-13.3Q105.94-8.55 106.89-6.68 107.84-4.8 109.59-4.8L109.59-4.8ZM150.84-35.5Q156.94-35.5 161.44-31.25L161.44-31.25 157.54-27.15Q155.84-28.5 154.41-29.1 152.99-29.7 151.19-29.7L151.19-29.7Q147.69-29.7 145.78-26.83 143.89-23.95 143.89-17.35L143.89-17.35Q143.89-12.6 144.53-9.93 145.19-7.25 146.49-6.15 147.78-5.05 149.94-5.05L149.94-5.05Q152.19-5.05 153.94-6.15L153.94-6.15 153.94-14.25 150.09-14.25 149.34-19.9 161.54-19.9 161.54-2.75Q159.09-1.05 156.09-0.1 153.09 0.85 150.09 0.85L150.09 0.85Q142.74 0.85 139.16-3.68 135.59-8.2 135.59-17.35L135.59-17.35Q135.59-23.25 137.59-27.35 139.59-31.45 143.03-33.48 146.49-35.5 150.84-35.5L150.84-35.5ZM187.73-13.8Q187.73-12.2 187.58-11L187.58-11 172.78-11Q173.08-7.5 174.33-6.15 175.58-4.8 177.88-4.8L177.88-4.8Q179.38-4.8 180.73-5.35 182.08-5.9 183.68-7.05L183.68-7.05 186.83-2.8Q182.73 0.85 177.28 0.85L177.28 0.85Q171.28 0.85 168.16-2.88 165.03-6.6 165.03-13.15L165.03-13.15Q165.03-19.55 168.03-23.48 171.03-27.4 176.48-27.4L176.48-27.4Q181.73-27.4 184.73-23.88 187.73-20.35 187.73-13.8L187.73-13.8ZM180.18-15.65L180.18-16Q180.18-19.15 179.36-20.73 178.53-22.3 176.58-22.3L176.58-22.3Q174.83-22.3 173.88-20.83 172.93-19.35 172.73-15.65L172.73-15.65 180.18-15.65ZM204.48-6L207.03-1.25Q205.68-0.25 203.91 0.3 202.13 0.85 200.33 0.85L200.33 0.85Q196.28 0.85 194.23-1.45 192.18-3.75 192.18-7.9L192.18-7.9 192.18-21.2 188.98-21.2 188.98-26.55 192.18-26.55 192.18-32.3 199.88-33.2 199.88-26.55 205.33-26.55 204.53-21.2 199.88-21.2 199.88-8Q199.88-5.25 201.98-5.25L201.98-5.25Q203.13-5.25 204.48-6L204.48-6ZM222.08-6L224.63-1.25Q223.28-0.25 221.5 0.3 219.73 0.85 217.93 0.85L217.93 0.85Q213.88 0.85 211.83-1.45 209.78-3.75 209.78-7.9L209.78-7.9 209.78-21.2 206.58-21.2 206.58-26.55 209.78-26.55 209.78-32.3 217.48-33.2 217.48-26.55 222.93-26.55 222.13-21.2 217.48-21.2 217.48-8Q217.48-5.25 219.58-5.25L219.58-5.25Q220.73-5.25 222.08-6L222.08-6ZM248.28-13.8Q248.28-12.2 248.13-11L248.13-11 233.32-11Q233.63-7.5 234.88-6.15 236.13-4.8 238.43-4.8L238.43-4.8Q239.93-4.8 241.28-5.35 242.63-5.9 244.22-7.05L244.22-7.05 247.38-2.8Q243.28 0.85 237.82 0.85L237.82 0.85Q231.82 0.85 228.7-2.88 225.57-6.6 225.57-13.15L225.57-13.15Q225.57-19.55 228.57-23.48 231.57-27.4 237.03-27.4L237.03-27.4Q242.28-27.4 245.28-23.88 248.28-20.35 248.28-13.8L248.28-13.8ZM240.72-15.65L240.72-16Q240.72-19.15 239.9-20.73 239.07-22.3 237.13-22.3L237.13-22.3Q235.38-22.3 234.43-20.83 233.47-19.35 233.28-15.65L233.28-15.65 240.72-15.65ZM265.67-27.3Q266.97-27.3 267.97-26.9L267.97-26.9 266.72-19.5Q265.67-19.8 264.62-19.8L264.62-19.8Q262.57-19.8 261.47-18.23 260.37-16.65 259.77-13.55L259.77-13.55 259.77 0 252.07 0 252.07-26.55 258.82-26.55 259.42-21.9Q260.32-24.5 261.92-25.9 263.52-27.3 265.67-27.3L265.67-27.3Z" opacity="1" transform="matrix(1,0,0,1,0,0)" fill="#000000" class="undefined-text-0" data-fill-palette-color="primary" id="text-0"></path></svg></g></svg></g></svg></g></svg></g><g transform="matrix(1,0,0,1,70.44480851553286,0)"><svg viewBox="0 0 51.110382968934275 38.763732327992464" height="38.763732327992464" width="51.110382968934275"><g><svg xmlns="http://www.w3.org/2000/svg" xmlns:xlink="http://www.w3.org/1999/xlink" version="1.1" x="0" y="0" viewBox="22 78.5270004272461 468 354.9460144042969" style="enable-background:new 0 0 512 512;" xml:space="preserve" height="38.763732327992464" width="51.110382968934275" class="icon-icon-0" data-fill-palette-color="accent" id="icon-0"><g fill="#2ecc40" data-fill-palette-color="accent"><g fill="#2ecc40" data-fill-palette-color="accent"><g fill="#2ecc40" data-fill-palette-color="accent"><path d="M425.571 332.303H490V206.958h-64.429V332.303z" fill="#000000" data-fill-palette-color="accent"></path><path d="M49.777 378.317c-14.937 0-27.115 12.136-27.149 27.053-0.033 14.917 12.092 27.108 27.029 27.173l211.22 0.929c28.555 0.124 55.46-10.989 75.836-31.349l61.179-61.131V206.96h-87.656c-16.778 0-32.811 7.999-42.89 21.397 0 0 0 0-0.001 0l-63.103 83.888c-5.426 7.215-5.673 17.383-0.556 24.832 8.13 11.837 26.499 12.112 34.934 0.396l42.307-58.769c4.77-6.625 13.997-8.154 20.647-3.42 6.651 4.734 8.229 13.952 3.532 20.629l-41.953 59.628c-10.035 14.263-26.441 22.777-43.886 22.777H49.777z" fill="#000000" data-fill-palette-color="accent"></path></g><path d="M108.751 78.527C60.916 78.527 22 117.405 22 165.192c0 47.787 38.916 86.664 86.751 86.664s86.751-38.878 86.751-86.664C195.502 117.405 156.586 78.527 108.751 78.527zM118.723 214.766v16.443H98.044v-15.248c-8.597-1.087-16.783-4.303-23.62-9.624l7.446-20.77c7.17 5.151 14.997 9.407 24.087 9.407 7.053 0 11.791-3.495 11.791-8.696 0-3.59-1.581-7.553-13.054-12.2-13.754-5.387-27.827-13.253-27.827-30.704 0-13.485 8.483-24.222 22.205-28.207V99.175h20.532v14.705c7.326 0.973 14.329 3.809 20.454 7.909l-7.751 20.445c-6.429-4.238-13.65-7.557-21.499-7.557-9.168 0-9.881 5.307-9.881 6.933 0 3.262 1.023 5.823 14.707 11.48 12.255 4.993 26.321 13.161 26.321 32.158C141.957 199.112 132.868 210.613 118.723 214.766z" fill="#000000" data-fill-palette-color="accent"></path></g></g></svg></g></svg></g><g></g></svg></g></svg></g></svg></g></svg></g><defs></defs></svg><rect width="320" height="360" fill="none" stroke="none" visibility="hidden"></rect></g></svg></g></svg>